<svg t="1716458560919" class="icon" viewBox="0 0 1024 1024" version="1.1" xmlns="http://www.w3.org/2000/svg" p-id="2564" width="200" height="200"><path d="M1022 875.2V574.5h-29.4v300.7c0 56.6-46.1 102.7-102.7 102.7h-728c-71.8 0-130.2-58.4-130.2-130.2V574.5H2.3v273.2c0 87.9 71.6 159.6 159.6 159.6h728c72.8-0.1 132.1-59.3 132.1-132.1z m-747.5-634c-5.8 5.7-6 14.9-0.3 20.7 2.9 3 6.7 4.5 10.6 4.5 3.7 0 7.4-1.4 10.2-4.1L512.2 52.2l217.2 210.2c2.8 2.8 6.6 4.1 10.2 4.1 3.9 0 7.7-1.5 10.6-4.5 5.7-5.8 5.5-15.1-0.3-20.7L522.4 21.1c-0.7-0.7-1.6-1-2.4-1.5-0.8-0.5-1.5-1.1-2.3-1.5-0.9-0.4-1.9-0.4-2.8-0.6-0.9-0.2-1.8-0.5-2.7-0.5s-1.8 0.3-2.7 0.5c-0.9 0.2-1.9 0.2-2.8 0.6-0.9 0.4-1.6 1-2.5 1.6-0.8 0.5-1.6 0.8-2.3 1.4L274.5 241.2z" fill="#070102" p-id="2565"></path><path d="M495.7 193h25.7v495.1h-25.7V193zM491.9 827.6c0 11.2 9 20.2 20.2 20.2s20.2-9 20.2-20.2-9.1-20.2-20.2-20.2c-11.2-0.1-20.2 9-20.2 20.2z" fill="#070102" p-id="2566"></path></svg>