<svg t="1716607757866" class="icon" viewBox="0 0 1024 1024" version="1.1" xmlns="http://www.w3.org/2000/svg" p-id="4000" width="200" height="200" fill='none'><path d="M898.844444 830.577778c22.755556 17.066667 22.755556 51.2 0 73.955555s-51.2 22.755556-73.955555 0L512 591.644444l-312.888889 312.888889c-11.377778 11.377778-22.755556 17.066667-39.822222 17.066667-11.377778 0-28.444444-5.688889-39.822222-17.066667-22.755556-22.755556-22.755556-51.2 0-73.955555l312.888889-312.888889-307.2-318.577778c-11.377778-5.688889-17.066667-22.755556-17.066667-34.133333 0-11.377778 5.688889-28.444444 17.066667-34.133334 22.755556-22.755556 51.2-22.755556 73.955555 0L512 443.733333l312.888889-312.888889c22.755556-22.755556 51.2-22.755556 73.955555 0s22.755556 51.2 0 73.955556l-312.888888 312.888889 312.888888 312.888889z" fill="#000000" p-id="4001"></path></svg>