<svg t="1719654828792" class="icon" viewBox="0 0 1024 1024" version="1.1" xmlns="http://www.w3.org/2000/svg" p-id="3963" width="200" height="200"><path d="M806.4 644.266667c-87.466667 0-160 72.533333-160 160s72.533333 160 160 160 160-72.533333 160-160-72.533333-160-160-160z m96 213.333333l-44.8 44.8-53.333333-53.333333-53.333334 53.333333-44.8-44.8 53.333334-53.333333-53.333334-53.333334 44.8-44.8 53.333334 53.333334 53.333333-53.333334 44.8 44.8-53.333333 53.333334 53.333333 53.333333zM554.666667 644.266667l-96-96-198.4 198.4h334.933333l153.6-153.6v-142.933334L554.666667 644.266667zM277.333333 277.333333v128h128v-128h-128z m554.666667-170.666666H192C145.066667 106.666667 106.666667 145.066667 106.666667 192v640c0 46.933333 38.4 85.333333 85.333333 85.333333h405.333333v-85.333333H192V192h640v405.333333h85.333333V192c0-46.933333-38.4-85.333333-85.333333-85.333333z" p-id="3964"></path></svg>