<svg t="1716564532845" class="icon" viewBox="0 0 1024 1024" version="1.1" xmlns="http://www.w3.org/2000/svg" p-id="3240" width="200" height="200"><path d="M787.2 508.8l64-64c57.6-57.6 64-150.4 9.6-204.8l-70.4-70.4c-54.4-54.4-147.2-51.2-204.8 9.6l-64 64c41.6 121.6 140.8 220.8 265.6 265.6zM572.8 454.4c-44.8-44.8-83.2-99.2-108.8-160L147.2 608c-16 16-22.4 38.4-22.4 57.6l6.4 153.6c0 38.4 32 67.2 67.2 67.2l166.4 6.4c22.4 0 41.6-6.4 57.6-22.4l310.4-310.4c-60.8-22.4-115.2-57.6-160-105.6z" p-id="3241"></path></svg>