<svg t="1713672297286" class="icon" viewBox="0 0 1024 1024"
                        version="1.1" xmlns="http://www.w3.org/2000/svg" p-id="24108" width="200" height="200">
                        <path
                            d="M996.991 364.765c-53.81-88.199-107.682-176.36-161.802-264.377-31.253-50.823-34.999-50.846-72.633-3.541-51.15 64.286-83.071 71.843-155.084 33.199-43.422-23.293-84.709-50.554-128.088-73.935C423.699 26.103 365.964 1.16 295.006 0.609c-51.808-4.813-93.745 25.118-132.219 62.647-12.288 11.987-11.859 24.48-4.662 39.818 63.912 136.229 127.495 272.622 190.258 409.385 9.243 20.139 23.75 27.348 42.037 20.973 32.226-11.234 63.537-25.292 94.701-39.349 76.737-34.626 151.097-42.56 222.747 13.369 24.809 19.361 51.823 36.12 78.882 52.304 35.231 21.086 73.323 23.736 105.475-2.64 35.613-29.226 69.102-61.936 99.034-96.958 33.371-39.042 31.953-52.42 5.732-95.393zM86.263 73.218C72.153 42.68 60.042 38.684 33.482 50.822 4.78 63.929 1.377 74.666 15.843 107.279 84.184 261.35 412.381 998.868 412.381 998.868s19.929 37.814 60.665 20.488c41.252-17.546 20.508-59.24 20.508-59.24S170.678 255.871 86.263 73.218z"
                            fill="#707070" p-id="24109"></path>
                    </svg>