<svg t="1713672744731" class="icon" viewBox="0 0 1024 1024"
                        version="1.1" xmlns="http://www.w3.org/2000/svg" p-id="30104" width="200" height="200">
                        <path
                            d="M582.4 960h-156.8c-28.8 0-51.2-22.4-52.8-51.2 0-6.4-4.8-40-4.8-44.8-4.8-59.2-20.8-116.8-48-171.2-1.6-3.2-11.2-19.2-14.4-22.4-52.8-52.8-83.2-123.2-83.2-198.4 0-155.2 126.4-280 280-280S784 318.4 784 473.6c0 76.8-30.4 148.8-86.4 201.6-1.6 3.2-12.8 19.2-14.4 22.4-25.6 52.8-40 107.2-44.8 164.8 0 3.2-3.2 44.8-3.2 44.8 0 28.8-24 52.8-52.8 52.8z m-78.4-718.4c-128 0-232 104-232 232 0 62.4 24 120 68.8 164.8 6.4 6.4 20.8 30.4 22.4 33.6 28.8 59.2 46.4 121.6 52.8 187.2 0 4.8 4.8 44.8 4.8 44.8v3.2c0 3.2 1.6 4.8 4.8 4.8h156.8c3.2 0 4.8-1.6 4.8-4.8 0-1.6 3.2-44.8 3.2-48 4.8-64 22.4-124.8 49.6-182.4 4.8-8 19.2-32 25.6-36.8 46.4-44.8 72-104 72-168-1.6-126.4-105.6-230.4-233.6-230.4z"
                            p-id="30105"></path>
                        <path
                            d="M281.6 812.8h443.2v48H281.6zM518.4 678.4l-43.2-20.8 59.2-118.4h-137.6l17.6-35.2c0-1.6 60.8-121.6 75.2-164.8l44.8 14.4c-11.2 32-41.6 96-60.8 136h137.6l-92.8 188.8zM480 64h48v91.2h-48zM137.664 203.504l33.936-33.936 64.48 64.48-33.92 33.936zM787.088 234.768l64.48-64.48 33.952 33.936-64.48 64.48z"
                            p-id="30106"></path>
                    </svg>