  <svg t="1715784414381" class="icon" viewBox="0 0 1024 1024" version="1.1" xmlns="http://www.w3.org/2000/svg"
                        p-id="9622" width="200" height="200">
                        <path
                          d="M819.2 128H409.6c-56.32 0-102.4 46.08-102.4 102.4v409.6c0 56.32 46.08 102.4 102.4 102.4h409.6c56.32 0 102.4-46.08 102.4-102.4V230.4c0-56.32-46.08-102.4-102.4-102.4z m51.2 512c0 28.16-23.04 51.2-51.2 51.2H409.6c-28.16 0-51.2-23.04-51.2-51.2V230.4c0-28.16 23.04-51.2 51.2-51.2h409.6c28.16 0 51.2 23.04 51.2 51.2v409.6z m-204.8 204.8c0 28.16-23.04 51.2-51.2 51.2H204.8c-28.16 0-51.2-23.04-51.2-51.2V435.2c0-28.16 23.04-51.2 51.2-51.2h51.2v-51.2H204.8c-56.32 0-102.4 46.08-102.4 102.4v409.6c0 56.32 46.08 102.4 102.4 102.4h409.6c56.32 0 102.4-46.08 102.4-102.4v-51.2h-51.2v51.2z"
                          fill="#ccd6de" p-id="9623"></path>
                      </svg>