<svg t="1713672231849" class="icon" viewBox="0 0 1806 1024"
                        version="1.1" xmlns="http://www.w3.org/2000/svg" p-id="21714" width="200" height="200">
                        <path
                            d="M232.570532 1023.18493A903.912974 903.912974 0 0 1 102.430973 0l48.360838 24.99549a849.303263 849.303263 0 0 0 121.988857 961.782966zM1572.817813 1024l-40.210136-36.406474A850.661714 850.661714 0 0 0 1655.411604 24.99549L1703.500752 0a904.184664 904.184664 0 0 1-130.682939 1024zM400.203326 363.249668l18.203237-114.924913-84.495622-79.876891 114.924914-18.474927 49.990979-104.87238 52.97957 102.970549 115.196604 15.214646-81.507031 81.507031 21.191828 114.381534-103.78562-52.70788z m-7.607323-176.870257l54.338021 52.1645-11.682675 74.714778 66.292386-36.134783 67.922526 33.961262-13.856196-74.443088 54.338021-54.338021-74.986469-10.052533-34.504643-67.107456-32.602812 70.096047zM1204.949413 363.249668l17.931546-114.924913-84.223932-79.876891 114.924914-18.474927 49.990979-104.87238 54.338021 103.51393 115.196604 15.214645-81.507031 81.507031 21.191828 114.381534-103.51393-52.70788z m-7.607323-176.870257l54.33802 52.1645-11.682674 74.714778 66.292385-36.134783 67.650836 33.961262-13.856195-74.443088 54.33802-54.338021-74.986468-10.052533-34.232953-67.107456-33.417883 70.096047zM904.188468 860.985938a89.386044 89.386044 0 0 1-58.956752-22.006898l-143.995755-125.792518a8.965773 8.965773 0 0 1 0-12.226055l24.452109-27.16901a8.694083 8.694083 0 0 1 12.226055 0l143.724064 125.792518a35.048023 35.048023 0 0 0 46.459008 0l143.995755-125.792518a8.694083 8.694083 0 0 1 12.226055 0l24.180419 27.16901a8.422393 8.422393 0 0 1 0 12.226055l-143.724065 125.792518a89.386044 89.386044 0 0 1-60.586893 22.006898z"
                            fill="#4D4D4D" p-id="21715"></path>
                    </svg>